<svg width="34" height="34" viewBox="0 0 34 34" fill="none" xmlns="http://www.w3.org/2000/svg">
<rect x="5.66667" y="5.66667" width="22.6667" height="22.6667" rx="3" fill="white"/>
<path d="M17 13.4867C16.3051 13.4867 15.6259 13.6927 15.0481 14.0788C14.4703 14.4648 14.02 15.0135 13.7541 15.6555C13.4882 16.2975 13.4186 17.0039 13.5542 17.6854C13.6897 18.3669 14.0243 18.9929 14.5157 19.4843C15.007 19.9756 15.6331 20.3103 16.3146 20.4458C16.9961 20.5814 17.7025 20.5118 18.3445 20.2459C18.9865 19.98 19.5352 19.5297 19.9212 18.9519C20.3073 18.3741 20.5133 17.6949 20.5133 17C20.5133 16.5386 20.4225 16.0818 20.2459 15.6555C20.0693 15.2292 19.8105 14.8419 19.4843 14.5157C19.1581 14.1895 18.7707 13.9307 18.3445 13.7541C17.9182 13.5775 17.4614 13.4867 17 13.4867ZM31.0675 10.0158C31.06 8.92182 30.8586 7.8378 30.4725 6.81416C30.1881 6.06511 29.7482 5.38488 29.1817 4.81834C28.6151 4.2518 27.9349 3.81184 27.1858 3.52749C26.1622 3.1414 25.0782 2.93995 23.9842 2.93249C22.1567 2.83333 21.6183 2.83333 17 2.83333C12.3817 2.83333 11.8433 2.83333 10.0158 2.93249C8.92182 2.93995 7.8378 3.1414 6.81416 3.52749C6.06511 3.81184 5.38488 4.2518 4.81834 4.81834C4.2518 5.38488 3.81184 6.06511 3.52749 6.81416C3.1414 7.8378 2.93995 8.92182 2.93249 10.0158C2.83333 11.8433 2.83333 12.3817 2.83333 17C2.83333 21.6183 2.83333 22.1567 2.93249 23.9842C2.94774 25.082 3.14893 26.1694 3.52749 27.2C3.81058 27.9456 4.25018 28.6219 4.81666 29.1833C5.38077 29.7533 6.06246 30.1932 6.81416 30.4725C7.8378 30.8586 8.92182 31.06 10.0158 31.0675C11.8433 31.1667 12.3817 31.1667 17 31.1667C21.6183 31.1667 22.1567 31.1667 23.9842 31.0675C25.0782 31.06 26.1622 30.8586 27.1858 30.4725C27.9375 30.1932 28.6192 29.7533 29.1833 29.1833C29.7498 28.6219 30.1894 27.9456 30.4725 27.2C30.8582 26.1713 31.0596 25.0827 31.0675 23.9842C31.1667 22.1567 31.1667 21.6183 31.1667 17C31.1667 12.3817 31.1667 11.8433 31.0675 10.0158ZM27.4692 21.3492C27.4237 22.2234 27.2371 23.0845 26.9167 23.8992C26.6416 24.5787 26.2328 25.196 25.7144 25.7144C25.196 26.2328 24.5787 26.6416 23.8992 26.9167C23.0768 27.2193 22.2109 27.3867 21.335 27.4125C20.2158 27.4125 19.9183 27.4125 17 27.4125C14.0817 27.4125 13.7842 27.4125 12.665 27.4125C11.7891 27.3867 10.9232 27.2193 10.1008 26.9167C9.39831 26.6556 8.76389 26.2391 8.245 25.6983C7.73169 25.1901 7.33527 24.5761 7.08333 23.8992C6.77953 23.0777 6.61669 22.2107 6.60166 21.335C6.60166 20.2158 6.60166 19.9183 6.60166 17C6.60166 14.0817 6.60166 13.7842 6.60166 12.665C6.61669 11.7892 6.77953 10.9223 7.08333 10.1008C7.34439 9.39831 7.76088 8.76389 8.30166 8.245C8.81213 7.73446 9.42545 7.33846 10.1008 7.08333C10.9232 6.78074 11.7891 6.61329 12.665 6.5875C13.7842 6.5875 14.0817 6.5875 17 6.5875C19.9183 6.5875 20.2158 6.5875 21.335 6.5875C22.2109 6.61329 23.0768 6.78074 23.8992 7.08333C24.6017 7.34439 25.2361 7.76088 25.755 8.30166C26.2683 8.80989 26.6647 9.42385 26.9167 10.1008C27.2193 10.9232 27.3867 11.7891 27.4125 12.665C27.4125 13.7842 27.4125 14.0817 27.4125 17C27.4125 19.9183 27.5117 20.2158 27.4692 21.335V21.3492ZM25.2025 10.8092C25.0338 10.3516 24.7679 9.93599 24.423 9.59113C24.0782 9.24627 23.6626 8.98033 23.205 8.81166C22.5767 8.59386 21.9149 8.48837 21.25 8.5C20.145 8.5 19.8333 8.5 17 8.5C14.1667 8.5 13.855 8.5 12.75 8.5C12.0817 8.50653 11.4198 8.63123 10.795 8.86833C10.3444 9.02934 9.93323 9.28442 9.58882 9.61661C9.24442 9.9488 8.97467 10.3505 8.7975 10.795C8.59176 11.4259 8.49125 12.0864 8.5 12.75C8.5 13.855 8.5 14.1667 8.5 17C8.5 19.8333 8.5 20.145 8.5 21.25C8.51404 21.9175 8.6385 22.5781 8.86833 23.205C9.037 23.6626 9.30294 24.0782 9.6478 24.423C9.99266 24.7679 10.4082 25.0338 10.8658 25.2025C11.4703 25.4248 12.1063 25.5491 12.75 25.5708C13.855 25.5708 14.1667 25.5708 17 25.5708C19.8333 25.5708 20.145 25.5708 21.25 25.5708C21.9183 25.5643 22.5801 25.4396 23.205 25.2025C23.6626 25.0338 24.0782 24.7679 24.423 24.423C24.7679 24.0782 25.0338 23.6626 25.2025 23.205C25.4396 22.5801 25.5643 21.9183 25.5708 21.25C25.5708 20.145 25.5708 19.8333 25.5708 17C25.5708 14.1667 25.5708 13.855 25.5708 12.75C25.5712 12.081 25.4463 11.4179 25.2025 10.795V10.8092ZM17 22.4117C16.29 22.4117 15.587 22.2716 14.9312 21.9995C14.2754 21.7273 13.6798 21.3285 13.1784 20.8258C12.677 20.3231 12.2797 19.7264 12.0093 19.0699C11.7389 18.4134 11.6006 17.71 11.6025 17C11.6025 15.9291 11.9202 14.8822 12.5155 13.992C13.1108 13.1017 13.9568 12.4081 14.9465 11.9989C15.9362 11.5897 17.025 11.4834 18.0751 11.6934C19.1253 11.9033 20.0895 12.4202 20.8458 13.1784C21.6021 13.9367 22.1164 14.9023 22.3236 15.9529C22.5308 17.0036 22.4216 18.0922 22.0098 19.0808C21.598 20.0694 20.9022 20.9136 20.0104 21.5065C19.1186 22.0995 18.0709 22.4145 17 22.4117ZM22.6667 12.6508C22.3535 12.6177 22.0637 12.4698 21.853 12.2357C21.6424 12.0016 21.5259 11.6978 21.5259 11.3829C21.5259 11.068 21.6424 10.7642 21.853 10.5301C22.0637 10.296 22.3535 10.1481 22.6667 10.115C22.9798 10.1481 23.2696 10.296 23.4803 10.5301C23.6909 10.7642 23.8075 11.068 23.8075 11.3829C23.8075 11.6978 23.6909 12.0016 23.4803 12.2357C23.2696 12.4698 22.9798 12.6177 22.6667 12.6508Z" fill="#98A4AF"/>
</svg>
