<svg width="34" height="34" viewBox="0 0 34 34" fill="none" xmlns="http://www.w3.org/2000/svg">
<rect x="6" y="6" width="22.6667" height="22.6667" rx="7" fill="white"/>
<path d="M21.3533 2.83333H12.6615C4.72219 2.83333 2.83334 4.72218 2.83334 12.6467V21.3385C2.83334 29.2777 4.7075 31.1667 12.6467 31.1667H21.3385C29.2778 31.1667 31.1667 29.2925 31.1667 21.3532V12.6615C31.1667 4.72218 29.2925 2.83333 21.3533 2.83333ZM25.7066 23.0503H23.6406C22.8585 23.0503 22.6224 22.4157 21.2205 21.0139C19.9956 19.8333 19.4792 19.6857 19.1693 19.6857C18.7414 19.6857 18.6232 19.8038 18.6232 20.3941V22.2534C18.6232 22.7552 18.4609 23.0503 17.1476 23.0503C15.8732 22.9647 14.6373 22.5775 13.5418 21.9207C12.4462 21.2639 11.5224 20.3563 10.8464 19.2725C9.24142 17.2749 8.12474 14.9303 7.5851 12.4253C7.5851 12.1154 7.70313 11.835 8.29344 11.835H10.3594C10.8906 11.835 11.0825 12.0711 11.2891 12.6172C12.2925 15.5685 14.0044 18.1362 14.6979 18.1362C14.9635 18.1362 15.0816 18.0182 15.0816 17.3542V14.3142C14.993 12.9271 14.2552 12.809 14.2552 12.3073C14.2649 12.1749 14.3258 12.0516 14.425 11.9634C14.5242 11.8752 14.6539 11.8292 14.7865 11.835H18.033C18.4757 11.835 18.6232 12.0564 18.6232 12.5876V16.6901C18.6232 17.1328 18.8151 17.2803 18.9479 17.2803C19.2135 17.2803 19.4201 17.1328 19.9071 16.6458C20.9536 15.3697 21.8086 13.9479 22.4453 12.4253C22.5103 12.2421 22.6335 12.0852 22.796 11.9786C22.9586 11.872 23.1516 11.8216 23.3455 11.835H25.4115C26.0313 11.835 26.1641 12.1449 26.0313 12.5876C25.2795 14.2711 24.3495 15.869 23.257 17.3542C23.0356 17.6935 22.9471 17.8706 23.257 18.2691C23.4635 18.579 24.1867 19.184 24.6736 19.7595C25.382 20.466 25.9701 21.2835 26.4149 22.1797C26.592 22.7552 26.2969 23.0503 25.7066 23.0503Z" fill="#98A4AF"/>
</svg>
