<svg width="34" height="34" viewBox="0 0 34 34" fill="none" xmlns="http://www.w3.org/2000/svg">
<path d="M32.5833 13.7559C32.6534 11.7282 32.2099 9.71559 31.2941 7.90507C30.6728 7.16217 29.8105 6.66082 28.8575 6.4884C24.9156 6.13073 20.9575 5.98413 17 6.04924C13.0569 5.98118 9.11299 6.12304 5.18498 6.47424C4.40839 6.6155 3.68972 6.97976 3.11665 7.52257C1.84165 8.6984 1.69998 10.7101 1.55832 12.4101C1.35277 15.4666 1.35277 18.5335 1.55832 21.5901C1.5993 22.5469 1.74177 23.4967 1.98332 24.4234C2.15413 25.1389 2.49972 25.8009 2.98915 26.3501C3.56611 26.9216 4.30153 27.3066 5.09998 27.4551C8.1542 27.8321 11.2316 27.9883 14.3083 27.9226C19.2666 27.9934 23.6158 27.9226 28.7583 27.5259C29.5764 27.3866 30.3325 27.0011 30.9258 26.4209C31.3224 26.0241 31.6187 25.5385 31.79 25.0042C32.2966 23.4496 32.5455 21.8226 32.5266 20.1876C32.5833 19.3942 32.5833 14.6059 32.5833 13.7559ZM13.7983 21.0376V12.2684L22.185 16.6742C19.8333 17.9776 16.7308 19.4509 13.7983 21.0376Z" fill="#98A4AF"/>
</svg>
