<svg width="72" height="60" viewBox="0 0 72 60" fill="none" xmlns="http://www.w3.org/2000/svg">
<path fill-rule="evenodd" clip-rule="evenodd" d="M33.3036 11.6418C21.3911 11.6418 11.7 21.3751 11.7 33.3414V38.5075H15.5863V33.3414C15.5863 23.5315 23.5326 15.5433 33.3036 15.5433C43.0702 15.5432 51.0173 23.5315 51.0173 33.3414V38.5075H54.9V33.3414C54.9 21.3751 45.2128 11.642 33.3036 11.6418Z" fill="#DD1E35"/>
<path fill-rule="evenodd" clip-rule="evenodd" d="M33.3015 17.9105C24.8634 17.9105 18 24.8552 18 33.3923V38.5075H20.4775V33.3923C20.4775 26.2397 26.2318 20.4196 33.3015 20.4196C40.3677 20.4196 46.122 26.2397 46.122 33.3923V38.5075H48.6V33.3923C48.6 24.8552 41.7328 17.9106 33.3015 17.9105Z" fill="#DD1E35"/>
<path fill-rule="evenodd" clip-rule="evenodd" d="M33.7506 24.1791C28.5383 24.1791 24.3 28.3552 24.3 33.4863V38.5074H25.4491V33.4863C25.4491 28.9823 29.1702 25.314 33.7506 25.314C38.3273 25.314 42.0486 28.9823 42.0486 33.4863V38.5074H43.2V33.4863C43.2 28.3552 38.9597 24.1791 33.7506 24.1791Z" fill="#DD1E35"/>
<path fill-rule="evenodd" clip-rule="evenodd" d="M33.7521 0C15.1416 0 0 14.9841 0 33.4057V38.5075H10.8899V33.4057C10.8899 20.9276 21.1452 10.779 33.7521 10.779C46.3545 10.779 56.6108 20.9276 56.6108 33.4057V38.5075H67.5V33.4057C67.5 14.9841 52.3593 0.000180313 33.7521 0Z" fill="#DD1E35"/>
<path fill-rule="evenodd" clip-rule="evenodd" d="M5.91567 56.8808C8.49155 56.8808 9.64478 55.3712 9.64478 52.8556C9.64478 50.2602 8.26447 48.7705 5.64707 48.7705H3.81242V56.8808H5.91567ZM0 45.6716H6.28587C10.8 45.6716 13.5 48.2474 13.5 52.7557C13.5 57.5645 10.9645 60 6.07983 60H0V45.6716Z" fill="#4A545E"/>
<path fill-rule="evenodd" clip-rule="evenodd" d="M27.7186 48.6897H19.9386V51.1654H27.052V54.0631H19.9386V56.8604H27.9V60H16.2V45.6716H27.7186V48.6897Z" fill="#4A545E"/>
<path fill-rule="evenodd" clip-rule="evenodd" d="M41.4 60H30.6V45.6716H34.4923V56.7796H41.4V60Z" fill="#4A545E"/>
<path fill-rule="evenodd" clip-rule="evenodd" d="M54 48.7909H47.0399V51.5477H53.0757V54.4863H47.0399V60H43.2V45.6716H54V48.7909Z" fill="#4A545E"/>
<path fill-rule="evenodd" clip-rule="evenodd" d="M61.2096 49.6914L59.5717 54.695H62.8075L61.2096 49.6914ZM68.4 60H64.5649L63.6462 57.3878H58.7329L57.7946 60H54L59.3322 45.6716H63.086L68.4 60Z" fill="#4A545E"/>
<path fill-rule="evenodd" clip-rule="evenodd" d="M70.2694 47.3735C70.3891 47.3735 70.4983 47.3589 70.5925 47.2597C70.662 47.1856 70.6873 47.1014 70.6873 47.0077C70.6873 46.9084 70.6574 46.8293 70.5779 46.7653C70.4832 46.6855 70.3686 46.6806 70.3043 46.6806H69.7325V47.3735H70.2694ZM70.3043 46.4236C70.5532 46.4236 70.7019 46.5027 70.7714 46.5526C70.9362 46.666 71.0156 46.849 71.0156 47.0122C71.0156 47.1361 70.9608 47.3045 70.8566 47.4078C70.7817 47.4824 70.6677 47.5318 70.6174 47.5469L71.0456 48.5013H70.7071L70.3043 47.616H69.7325V48.5013H69.4239V46.4236H70.3043ZM70.1995 45.9288C69.3545 45.9288 68.6579 46.6218 68.6579 47.4628C68.6579 48.3038 69.3545 48.9963 70.1995 48.9963C71.0456 48.9962 71.7416 48.3038 71.7416 47.4628C71.7416 46.6218 71.0455 45.9288 70.1995 45.9288ZM70.1995 45.6716C71.1996 45.6716 72 46.4684 72 47.4628C72 48.4569 71.1996 49.2537 70.1995 49.2537C69.2004 49.2537 68.4 48.457 68.4 47.4628C68.4001 46.4684 69.2004 45.6718 70.1995 45.6716Z" fill="#4A545E"/>
</svg>
